/* XPM */
static char *result[] = {
/* columns rows colors chars-per-pixel */
"32 32 4 1 ",
"  c black",
". c green",
"X c yellow",
"o c white",
/* pixels */
"                                ",
"                                ",
"                                ",
"                     oooo       ",
"                     oooo       ",
"                   oo....oo     ",
"                   oo....oo     ",
"     oooooo      ooXXoo....oo   ",
"     oooooo      ooXXoo....oo   ",
"   oo......oo  ooXX..XXoo....oo ",
"   oo......oo  ooXX..XXoo....oo ",
" oo..........oo....XX..XXoo..oo ",
" oo..........oo....XX..XXoo..oo ",
" oo..................XX..XXoo   ",
" oo..................XX..XXoo   ",
"   oo..................XXoo     ",
"   oo..................XXoo     ",
"     oo................oo       ",
"     oo................oo       ",
"       oo............oo         ",
"       oo............oo         ",
"         oo........oo           ",
"         oo........oo           ",
"           oo....oo             ",
"           oo....oo             ",
"             oooo               ",
"             oooo               ",
"                                ",
"                                ",
"                                ",
"                                ",
"                                "
};
